<mxfile host="app.diagrams.net" modified="2021-02-19T12:05:20.618Z" agent="5.0 (Macintosh; Intel Mac OS X 11_2_1) AppleWebKit/537.36 (KHTML, like Gecko) Chrome/88.0.4324.182 Safari/537.36" etag="OsqokExy8ZZwCAvPQ18z" version="14.4.2" type="github">
  <diagram id="-kICbCHPNCv4q9dFUpaD" name="Page-1">
    <mxGraphModel dx="1694" dy="1091" grid="1" gridSize="10" guides="1" tooltips="1" connect="1" arrows="1" fold="1" page="1" pageScale="1" pageWidth="10000" pageHeight="10000" math="0" shadow="0">
      <root>
        <mxCell id="0" />
        <mxCell id="1" parent="0" />
        <mxCell id="QnNmd5GTa8fXR8hh2SQ2-26" style="edgeStyle=orthogonalEdgeStyle;rounded=0;orthogonalLoop=1;jettySize=auto;html=1;entryX=0.5;entryY=0;entryDx=0;entryDy=0;" edge="1" parent="1" source="QnNmd5GTa8fXR8hh2SQ2-19" target="QnNmd5GTa8fXR8hh2SQ2-23">
          <mxGeometry relative="1" as="geometry" />
        </mxCell>
        <mxCell id="QnNmd5GTa8fXR8hh2SQ2-19" value="" style="rounded=0;whiteSpace=wrap;html=1;" vertex="1" parent="1">
          <mxGeometry x="630" y="240" width="310" height="430" as="geometry" />
        </mxCell>
        <mxCell id="QnNmd5GTa8fXR8hh2SQ2-21" style="edgeStyle=orthogonalEdgeStyle;rounded=0;orthogonalLoop=1;jettySize=auto;html=1;entryX=0;entryY=0.5;entryDx=0;entryDy=0;" edge="1" parent="1" source="QnNmd5GTa8fXR8hh2SQ2-16" target="QnNmd5GTa8fXR8hh2SQ2-19">
          <mxGeometry relative="1" as="geometry" />
        </mxCell>
        <mxCell id="QnNmd5GTa8fXR8hh2SQ2-16" value="" style="rounded=0;whiteSpace=wrap;html=1;" vertex="1" parent="1">
          <mxGeometry x="80" y="200" width="380" height="200" as="geometry" />
        </mxCell>
        <mxCell id="QnNmd5GTa8fXR8hh2SQ2-5" value="&lt;div style=&quot;background-color: rgb(255 , 255 , 255) ; line-height: 18px&quot;&gt;&lt;div style=&quot;line-height: 18px&quot;&gt;MenuItemComponent&lt;/div&gt;&lt;/div&gt;" style="rounded=1;whiteSpace=wrap;html=1;fillColor=#dae8fc;strokeColor=#6c8ebf;" vertex="1" parent="1">
          <mxGeometry x="80" y="10" width="180" height="40" as="geometry" />
        </mxCell>
        <mxCell id="QnNmd5GTa8fXR8hh2SQ2-6" value="&lt;div style=&quot;background-color: rgb(255 , 255 , 255) ; line-height: 18px&quot;&gt;&lt;div style=&quot;line-height: 18px&quot;&gt;AddVendorManager&lt;/div&gt;&lt;/div&gt;" style="rounded=1;whiteSpace=wrap;html=1;fillColor=#dae8fc;strokeColor=#6c8ebf;" vertex="1" parent="1">
          <mxGeometry x="80" y="60" width="180" height="40" as="geometry" />
        </mxCell>
        <mxCell id="QnNmd5GTa8fXR8hh2SQ2-17" style="edgeStyle=orthogonalEdgeStyle;rounded=0;orthogonalLoop=1;jettySize=auto;html=1;" edge="1" parent="1" source="QnNmd5GTa8fXR8hh2SQ2-7" target="QnNmd5GTa8fXR8hh2SQ2-16">
          <mxGeometry relative="1" as="geometry" />
        </mxCell>
        <mxCell id="QnNmd5GTa8fXR8hh2SQ2-7" value="&lt;div style=&quot;background-color: rgb(255 , 255 , 255) ; line-height: 18px&quot;&gt;&lt;div style=&quot;line-height: 18px&quot;&gt;ManagerCallButton&lt;/div&gt;&lt;/div&gt;" style="rounded=1;whiteSpace=wrap;html=1;fillColor=#dae8fc;strokeColor=#6c8ebf;" vertex="1" parent="1">
          <mxGeometry x="80" y="110" width="180" height="40" as="geometry" />
        </mxCell>
        <mxCell id="QnNmd5GTa8fXR8hh2SQ2-10" value="&lt;div style=&quot;background-color: rgb(255 , 255 , 255) ; line-height: 18px&quot;&gt;&lt;div style=&quot;line-height: 18px&quot;&gt;MenuItemComponent&lt;/div&gt;&lt;/div&gt;" style="rounded=1;whiteSpace=wrap;html=1;fillColor=#dae8fc;strokeColor=#6c8ebf;" vertex="1" parent="1">
          <mxGeometry x="660" y="420" width="180" height="40" as="geometry" />
        </mxCell>
        <mxCell id="QnNmd5GTa8fXR8hh2SQ2-11" value="&lt;div style=&quot;background-color: rgb(255 , 255 , 255) ; line-height: 18px&quot;&gt;&lt;div style=&quot;line-height: 18px&quot;&gt;AddVendorManager&lt;/div&gt;&lt;/div&gt;" style="rounded=1;whiteSpace=wrap;html=1;fillColor=#dae8fc;strokeColor=#6c8ebf;" vertex="1" parent="1">
          <mxGeometry x="660" y="470" width="180" height="40" as="geometry" />
        </mxCell>
        <mxCell id="QnNmd5GTa8fXR8hh2SQ2-12" value="&lt;div style=&quot;background-color: rgb(255 , 255 , 255) ; line-height: 18px&quot;&gt;&lt;div style=&quot;line-height: 18px&quot;&gt;ManagerCallButton&lt;/div&gt;&lt;/div&gt;" style="rounded=1;whiteSpace=wrap;html=1;fillColor=#dae8fc;strokeColor=#6c8ebf;" vertex="1" parent="1">
          <mxGeometry x="660" y="520" width="180" height="40" as="geometry" />
        </mxCell>
        <mxCell id="QnNmd5GTa8fXR8hh2SQ2-1" value="Модуль&amp;nbsp;&amp;nbsp;&lt;span style=&quot;background-color: rgb(255 , 255 , 255)&quot;&gt;ApplicationHeaderModule&lt;/span&gt;" style="rounded=0;whiteSpace=wrap;html=1;" vertex="1" parent="1">
          <mxGeometry x="120" y="220" width="260" height="60" as="geometry" />
        </mxCell>
        <mxCell id="QnNmd5GTa8fXR8hh2SQ2-3" value="" style="rounded=0;whiteSpace=wrap;html=1;" vertex="1" parent="1">
          <mxGeometry x="120" y="310" width="220" height="60" as="geometry" />
        </mxCell>
        <mxCell id="QnNmd5GTa8fXR8hh2SQ2-4" value="Components" style="text;html=1;strokeColor=none;fillColor=none;align=center;verticalAlign=middle;whiteSpace=wrap;rounded=0;" vertex="1" parent="1">
          <mxGeometry x="120" y="290" width="80" height="20" as="geometry" />
        </mxCell>
        <mxCell id="QnNmd5GTa8fXR8hh2SQ2-2" value="&lt;div style=&quot;background-color: rgb(255 , 255 , 255) ; line-height: 18px&quot;&gt;ApplicationHeader&lt;/div&gt;" style="rounded=1;whiteSpace=wrap;html=1;fillColor=#f8cecc;strokeColor=#b85450;" vertex="1" parent="1">
          <mxGeometry x="130" y="320" width="180" height="40" as="geometry" />
        </mxCell>
        <mxCell id="QnNmd5GTa8fXR8hh2SQ2-18" value="&lt;div style=&quot;background-color: rgb(255 , 255 , 255) ; line-height: 18px&quot;&gt;ApplicationHeader&lt;/div&gt;" style="rounded=1;whiteSpace=wrap;html=1;fillColor=#f8cecc;strokeColor=#b85450;" vertex="1" parent="1">
          <mxGeometry x="660" y="370" width="180" height="40" as="geometry" />
        </mxCell>
        <mxCell id="QnNmd5GTa8fXR8hh2SQ2-20" value="&lt;div style=&quot;background-color: rgb(255 , 255 , 255) ; line-height: 18px&quot;&gt;OnaApplicationHeaderModule&lt;/div&gt;" style="rounded=1;whiteSpace=wrap;html=1;" vertex="1" parent="1">
          <mxGeometry x="650" y="250" width="270" height="60" as="geometry" />
        </mxCell>
        <mxCell id="QnNmd5GTa8fXR8hh2SQ2-23" value="&lt;div style=&quot;background-color: rgb(255 , 255 , 255) ; line-height: 18px&quot;&gt;ApplicationHeader&lt;/div&gt;" style="rounded=1;whiteSpace=wrap;html=1;fillColor=#f8cecc;strokeColor=#b85450;" vertex="1" parent="1">
          <mxGeometry x="672.5" y="810" width="225" height="80" as="geometry" />
        </mxCell>
        <mxCell id="QnNmd5GTa8fXR8hh2SQ2-28" style="edgeStyle=orthogonalEdgeStyle;rounded=0;orthogonalLoop=1;jettySize=auto;html=1;entryX=0;entryY=0.5;entryDx=0;entryDy=0;" edge="1" parent="1" source="QnNmd5GTa8fXR8hh2SQ2-27" target="QnNmd5GTa8fXR8hh2SQ2-23">
          <mxGeometry relative="1" as="geometry" />
        </mxCell>
        <mxCell id="QnNmd5GTa8fXR8hh2SQ2-27" value="&lt;div style=&quot;background-color: rgb(255 , 255 , 255) ; line-height: 18px&quot;&gt;menuStruct (func)&lt;/div&gt;" style="rounded=1;whiteSpace=wrap;html=1;" vertex="1" parent="1">
          <mxGeometry x="240" y="880" width="120" height="60" as="geometry" />
        </mxCell>
        <mxCell id="QnNmd5GTa8fXR8hh2SQ2-31" style="edgeStyle=orthogonalEdgeStyle;rounded=0;orthogonalLoop=1;jettySize=auto;html=1;entryX=0.25;entryY=0;entryDx=0;entryDy=0;" edge="1" parent="1" source="QnNmd5GTa8fXR8hh2SQ2-29" target="QnNmd5GTa8fXR8hh2SQ2-27">
          <mxGeometry relative="1" as="geometry" />
        </mxCell>
        <mxCell id="QnNmd5GTa8fXR8hh2SQ2-29" value="&lt;div style=&quot;background-color: rgb(255 , 255 , 255) ; line-height: 18px&quot;&gt;&lt;div style=&quot;line-height: 18px&quot;&gt;onboardingDefaultMenuStruct (func)&lt;/div&gt;&lt;/div&gt;" style="rounded=1;whiteSpace=wrap;html=1;" vertex="1" parent="1">
          <mxGeometry x="50" y="730" width="200" height="60" as="geometry" />
        </mxCell>
        <mxCell id="QnNmd5GTa8fXR8hh2SQ2-32" style="edgeStyle=orthogonalEdgeStyle;rounded=0;orthogonalLoop=1;jettySize=auto;html=1;entryX=0.5;entryY=0;entryDx=0;entryDy=0;" edge="1" parent="1" source="QnNmd5GTa8fXR8hh2SQ2-30" target="QnNmd5GTa8fXR8hh2SQ2-27">
          <mxGeometry relative="1" as="geometry" />
        </mxCell>
        <mxCell id="QnNmd5GTa8fXR8hh2SQ2-30" value="&lt;div style=&quot;background-color: rgb(255 , 255 , 255) ; line-height: 18px&quot;&gt;&lt;div style=&quot;line-height: 18px&quot;&gt;&lt;div style=&quot;line-height: 18px&quot;&gt;defaultMenuStruct (func)&lt;/div&gt;&lt;/div&gt;&lt;/div&gt;" style="rounded=1;whiteSpace=wrap;html=1;" vertex="1" parent="1">
          <mxGeometry x="290" y="730" width="200" height="60" as="geometry" />
        </mxCell>
        <mxCell id="QnNmd5GTa8fXR8hh2SQ2-34" style="edgeStyle=orthogonalEdgeStyle;rounded=0;orthogonalLoop=1;jettySize=auto;html=1;exitX=0.5;exitY=0;exitDx=0;exitDy=0;entryX=0.25;entryY=1;entryDx=0;entryDy=0;" edge="1" parent="1" source="QnNmd5GTa8fXR8hh2SQ2-33" target="QnNmd5GTa8fXR8hh2SQ2-27">
          <mxGeometry relative="1" as="geometry" />
        </mxCell>
        <mxCell id="QnNmd5GTa8fXR8hh2SQ2-33" value="необходимые конфигурации" style="rounded=1;whiteSpace=wrap;html=1;" vertex="1" parent="1">
          <mxGeometry x="120" y="1090" width="120" height="60" as="geometry" />
        </mxCell>
        <mxCell id="QnNmd5GTa8fXR8hh2SQ2-37" style="edgeStyle=orthogonalEdgeStyle;rounded=0;orthogonalLoop=1;jettySize=auto;html=1;entryX=0.36;entryY=-0.064;entryDx=0;entryDy=0;entryPerimeter=0;" edge="1" parent="1" source="QnNmd5GTa8fXR8hh2SQ2-35" target="QnNmd5GTa8fXR8hh2SQ2-27">
          <mxGeometry relative="1" as="geometry" />
        </mxCell>
        <mxCell id="QnNmd5GTa8fXR8hh2SQ2-39" style="edgeStyle=orthogonalEdgeStyle;rounded=0;orthogonalLoop=1;jettySize=auto;html=1;" edge="1" parent="1" source="QnNmd5GTa8fXR8hh2SQ2-35">
          <mxGeometry relative="1" as="geometry">
            <mxPoint x="240" y="400.0000000000002" as="targetPoint" />
          </mxGeometry>
        </mxCell>
        <mxCell id="QnNmd5GTa8fXR8hh2SQ2-35" value="&lt;div style=&quot;background-color: rgb(255 , 255 , 255) ; line-height: 18px&quot;&gt;&lt;div style=&quot;line-height: 18px&quot;&gt;&lt;div style=&quot;line-height: 18px&quot;&gt;Конфиг Модуля&lt;/div&gt;&lt;/div&gt;&lt;/div&gt;" style="rounded=1;whiteSpace=wrap;html=1;" vertex="1" parent="1">
          <mxGeometry x="140" y="460" width="200" height="60" as="geometry" />
        </mxCell>
      </root>
    </mxGraphModel>
  </diagram>
</mxfile>
